<svg width="19" height="20" viewBox="0 0 19 20" fill="none" xmlns="http://www.w3.org/2000/svg">
<path d="M7.17072 14.0542C6.7708 14.0542 6.43229 13.9156 6.15521 13.6385C5.87812 13.3615 5.73958 13.023 5.73958 12.623V3.6103C5.73958 3.21037 5.87812 2.87187 6.15521 2.59479C6.43229 2.3177 6.7708 2.17916 7.17072 2.17916H13.8084C14.2084 2.17916 14.5469 2.3177 14.824 2.59479C15.101 2.87187 15.2396 3.21037 15.2396 3.6103V12.623C15.2396 13.023 15.101 13.3615 14.824 13.6385C14.5469 13.9156 14.2084 14.0542 13.8084 14.0542H7.17072ZM7.17072 12.8667H13.8084C13.8694 12.8667 13.9252 12.8413 13.9759 12.7905C14.0267 12.7398 14.0521 12.684 14.0521 12.623V3.6103C14.0521 3.54934 14.0267 3.49353 13.9759 3.44286C13.9252 3.39206 13.8694 3.36666 13.8084 3.36666H7.17072C7.10976 3.36666 7.05395 3.39206 7.00328 3.44286C6.95248 3.49353 6.92708 3.54934 6.92708 3.6103V12.623C6.92708 12.684 6.95248 12.7398 7.00328 12.7905C7.05395 12.8413 7.10976 12.8667 7.17072 12.8667ZM4.39989 16.825C3.99996 16.825 3.66146 16.6865 3.38438 16.4094C3.10729 16.1323 2.96875 15.7938 2.96875 15.3939V5.78738C2.96875 5.61889 3.02562 5.47777 3.13935 5.36404C3.25296 5.25043 3.39401 5.19363 3.5625 5.19363C3.73099 5.19363 3.87211 5.25043 3.98584 5.36404C4.09945 5.47777 4.15625 5.61889 4.15625 5.78738V15.3939C4.15625 15.4548 4.18165 15.5106 4.23245 15.5613C4.28311 15.6121 4.33893 15.6375 4.39989 15.6375H11.6314C11.7999 15.6375 11.941 15.6943 12.0547 15.8079C12.1683 15.9216 12.2251 16.0628 12.2251 16.2312C12.2251 16.3997 12.1683 16.5408 12.0547 16.6544C11.941 16.7681 11.7999 16.825 11.6314 16.825H4.39989Z" fill="#090A0B"/>
</svg>
