<svg width="19" height="20" viewBox="0 0 19 20" fill="none" xmlns="http://www.w3.org/2000/svg">
<path d="M5.7853 16.4292C5.39171 16.4292 5.05479 16.289 4.77454 16.0088C4.49429 15.7285 4.35417 15.3916 4.35417 14.998V4.95H4.15625C3.98802 4.95 3.84704 4.89307 3.7333 4.7792C3.61943 4.66533 3.5625 4.52428 3.5625 4.35605C3.5625 4.18769 3.61943 4.04671 3.7333 3.9331C3.84704 3.81937 3.98802 3.7625 4.15625 3.7625H7.125C7.125 3.56867 7.19328 3.40348 7.32984 3.26692C7.46627 3.13049 7.6314 3.06227 7.82523 3.06227H11.1748C11.3686 3.06227 11.5337 3.13049 11.6702 3.26692C11.8067 3.40348 11.875 3.56867 11.875 3.7625H14.8438C15.012 3.7625 15.153 3.81943 15.2667 3.9333C15.3806 4.04717 15.4375 4.18822 15.4375 4.35645C15.4375 4.52481 15.3806 4.66579 15.2667 4.7794C15.153 4.89313 15.012 4.95 14.8438 4.95H14.6458V14.998C14.6458 15.3916 14.5057 15.7285 14.2255 16.0088C13.9452 16.289 13.6083 16.4292 13.2147 16.4292H5.7853ZM13.4583 4.95H5.54167V14.998C5.54167 15.0692 5.56449 15.1275 5.61015 15.1732C5.6558 15.2188 5.71418 15.2417 5.7853 15.2417H13.2147C13.2858 15.2417 13.3442 15.2188 13.3899 15.1732C13.4355 15.1275 13.4583 15.0692 13.4583 14.998V4.95ZM8.03878 13.6583C8.20701 13.6583 8.34799 13.6015 8.46173 13.4877C8.57533 13.3739 8.63214 13.2328 8.63214 13.0646V7.12708C8.63214 6.95885 8.5752 6.81781 8.46133 6.70394C8.3476 6.5902 8.20655 6.53333 8.03819 6.53333C7.86996 6.53333 7.72898 6.5902 7.61524 6.70394C7.50164 6.81781 7.44483 6.95885 7.44483 7.12708V13.0646C7.44483 13.2328 7.5017 13.3739 7.61544 13.4877C7.72931 13.6015 7.87042 13.6583 8.03878 13.6583ZM10.9618 13.6583C11.13 13.6583 11.271 13.6015 11.3848 13.4877C11.4984 13.3739 11.5552 13.2328 11.5552 13.0646V7.12708C11.5552 6.95885 11.4983 6.81781 11.3846 6.70394C11.2707 6.5902 11.1296 6.53333 10.9612 6.53333C10.793 6.53333 10.652 6.5902 10.5383 6.70394C10.4247 6.81781 10.3679 6.95885 10.3679 7.12708V13.0646C10.3679 13.2328 10.4248 13.3739 10.5387 13.4877C10.6524 13.6015 10.7935 13.6583 10.9618 13.6583Z" fill="#090A0B"/>
</svg>
