<svg width="19" height="20" viewBox="0 0 19 20" fill="none" xmlns="http://www.w3.org/2000/svg">
<path d="M11.4317 5.93958C11.2812 5.93958 11.1308 5.88416 11.0121 5.76541L9.405 4.15833L7.79791 5.76541C7.56833 5.995 7.18833 5.995 6.95875 5.76541C6.72916 5.53583 6.72916 5.15583 6.95875 4.92625L8.98541 2.89958C9.215 2.67 9.595 2.67 9.82458 2.89958L11.8512 4.92625C12.0808 5.15583 12.0808 5.53583 11.8512 5.76541C11.7325 5.88416 11.5821 5.93958 11.4317 5.93958Z" fill="#090A0B"/>
<path d="M9.40503 12.0196C9.08045 12.0196 8.81128 11.7504 8.81128 11.4258V3.37458C8.81128 3.05 9.08045 2.78083 9.40503 2.78083C9.72961 2.78083 9.99878 3.05 9.99878 3.37458V11.4258C9.99878 11.7583 9.72961 12.0196 9.40503 12.0196Z" fill="#090A0B"/>
<path d="M9.50002 16.6271C5.42294 16.6271 2.57294 13.7771 2.57294 9.7C2.57294 9.37541 2.8421 9.10625 3.16669 9.10625C3.49127 9.10625 3.76044 9.37541 3.76044 9.7C3.76044 13.0804 6.1196 15.4396 9.50002 15.4396C12.8804 15.4396 15.2396 13.0804 15.2396 9.7C15.2396 9.37541 15.5088 9.10625 15.8334 9.10625C16.1579 9.10625 16.4271 9.37541 16.4271 9.7C16.4271 13.7771 13.5771 16.6271 9.50002 16.6271Z" fill="#090A0B"/>
</svg>
