<svg width="19" height="20" viewBox="0 0 19 20" fill="none" xmlns="http://www.w3.org/2000/svg">
<path d="M9.62635 9.39917C9.6026 9.39917 9.58676 9.39917 9.56301 9.39917C9.52343 9.39125 9.46801 9.39125 9.42051 9.39917C7.12468 9.32792 5.39093 7.52292 5.39093 5.29833C5.39093 3.03417 7.23551 1.18958 9.49968 1.18958C11.7638 1.18958 13.6084 3.03417 13.6084 5.29833C13.6005 7.52292 11.8588 9.32792 9.6501 9.39917C9.64218 9.39917 9.63426 9.39917 9.62635 9.39917ZM9.49968 2.37708C7.8926 2.37708 6.57843 3.69125 6.57843 5.29833C6.57843 6.88167 7.81343 8.15625 9.38885 8.21167C9.42843 8.20375 9.53926 8.20375 9.64218 8.21167C11.1938 8.14042 12.413 6.86583 12.4209 5.29833C12.4209 3.69125 11.1068 2.37708 9.49968 2.37708Z" fill="#090A0B"/>
<path d="M9.63427 18.0521C8.08261 18.0521 6.52302 17.6562 5.34344 16.8646C4.24302 16.1362 3.64136 15.1387 3.64136 14.0542C3.64136 12.9696 4.24302 11.9642 5.34344 11.2279C7.71844 9.65249 11.5659 9.65249 13.9251 11.2279C15.0176 11.9562 15.6272 12.9537 15.6272 14.0383C15.6272 15.1229 15.0255 16.1283 13.9251 16.8646C12.7376 17.6562 11.1859 18.0521 9.63427 18.0521ZM6.00052 12.2254C5.24052 12.7321 4.82886 13.3812 4.82886 14.0621C4.82886 14.735 5.24844 15.3842 6.00052 15.8829C7.97177 17.205 11.2968 17.205 13.268 15.8829C14.028 15.3762 14.4397 14.7271 14.4397 14.0462C14.4397 13.3733 14.0201 12.7242 13.268 12.2254C11.2968 10.9112 7.97177 10.9112 6.00052 12.2254Z" fill="#090A0B"/>
</svg>
