<svg width="19" height="20" viewBox="0 0 19 20" fill="none" xmlns="http://www.w3.org/2000/svg">
<path d="M9.48474 16.4292C7.89336 16.4292 6.49072 15.9435 5.27683 14.9721C4.06294 14.0009 3.28493 12.7581 2.9428 11.2437C2.90018 11.0865 2.92585 10.9419 3.01979 10.8099C3.1136 10.678 3.24654 10.6013 3.41859 10.5799C3.58049 10.5587 3.72563 10.5907 3.85401 10.6759C3.98239 10.7612 4.07198 10.8865 4.12278 11.052C4.42414 12.275 5.07344 13.279 6.07068 14.0641C7.06791 14.8491 8.20593 15.2417 9.48474 15.2417C11.0285 15.2417 12.338 14.704 13.4134 13.6286C14.4887 12.5533 15.0264 11.2437 15.0264 9.7C15.0264 8.15625 14.4887 6.8467 13.4134 5.77135C12.338 4.69601 11.0285 4.15833 9.48474 4.15833C8.61998 4.15833 7.80957 4.35044 7.05353 4.73467C6.29736 5.11876 5.64621 5.64726 5.10009 6.32018H6.57695C6.74518 6.32018 6.88616 6.37711 6.9999 6.49098C7.11376 6.60485 7.1707 6.7459 7.1707 6.91412C7.1707 7.08249 7.11376 7.22347 6.9999 7.33707C6.88616 7.45081 6.74518 7.50768 6.57695 7.50768H3.86707C3.66427 7.50768 3.49433 7.43907 3.35724 7.30184C3.22002 7.16475 3.15141 6.99481 3.15141 6.79201V4.08214C3.15141 3.91391 3.20834 3.77292 3.32221 3.65919C3.43608 3.54532 3.57719 3.48839 3.74555 3.48839C3.91378 3.48839 4.05476 3.54532 4.1685 3.65919C4.2821 3.77292 4.33891 3.91391 4.33891 4.08214V5.36404C4.98134 4.60589 5.75071 4.01748 6.64701 3.59882C7.54318 3.18016 8.48909 2.97083 9.48474 2.97083C10.4189 2.97083 11.2939 3.14744 12.1097 3.50066C12.9255 3.85387 13.6369 4.33395 14.2438 4.94089C14.8508 5.54784 15.3309 6.25915 15.6841 7.07483C16.0373 7.89065 16.2139 8.76557 16.2139 9.6996C16.2139 10.6336 16.0373 11.5086 15.6841 12.3246C15.3309 13.1406 14.8508 13.8522 14.2438 14.4591C13.6369 15.066 12.9255 15.5461 12.1097 15.8993C11.2939 16.2526 10.4189 16.4292 9.48474 16.4292ZM10.1013 9.45953L12.2783 11.6366C12.388 11.7461 12.4441 11.8839 12.4466 12.0499C12.4492 12.2158 12.3931 12.3562 12.2783 12.4708C12.1637 12.5855 12.0247 12.6428 11.8613 12.6428C11.6978 12.6428 11.5588 12.5855 11.4441 12.4708L9.12849 10.1552C9.05447 10.0811 9.00017 10.0003 8.9656 9.91296C8.93117 9.82561 8.91395 9.73536 8.91395 9.64221V6.33542C8.91395 6.16719 8.97082 6.02614 9.08455 5.91227C9.19842 5.79853 9.33953 5.74167 9.5079 5.74167C9.67612 5.74167 9.81711 5.79853 9.93084 5.91227C10.0444 6.02614 10.1013 6.16719 10.1013 6.33542V9.45953Z" fill="#090A0B"/>
</svg>
