<svg width="19" height="20" viewBox="0 0 19 20" fill="none" xmlns="http://www.w3.org/2000/svg">
<path d="M14.251 17.4187C13.6464 17.4187 13.1323 17.2071 12.7086 16.7838C12.2848 16.3604 12.0729 15.8464 12.0729 15.2417C12.0729 15.1428 12.0808 15.0405 12.0965 14.9347C12.1123 14.8287 12.1359 14.7311 12.1673 14.6418L6.31198 11.2133C6.10298 11.4213 5.86502 11.584 5.59809 11.7011C5.33117 11.8184 5.04848 11.8771 4.75002 11.8771C4.14532 11.8771 3.63126 11.6655 3.20785 11.2424C2.78458 10.8192 2.57294 10.3054 2.57294 9.70099C2.57294 9.09642 2.78458 8.5823 3.20785 8.15862C3.63126 7.73482 4.14532 7.52291 4.75002 7.52291C5.04848 7.52291 5.33117 7.58156 5.59809 7.69886C5.86502 7.81603 6.10298 7.97865 6.31198 8.18673L12.1673 4.75822C12.1359 4.66889 12.1123 4.57125 12.0965 4.4653C12.0808 4.35948 12.0729 4.25716 12.0729 4.15833C12.0729 3.55363 12.2845 3.03957 12.7077 2.61616C13.1308 2.19289 13.6446 1.98125 14.249 1.98125C14.8536 1.98125 15.3677 2.19282 15.7914 2.61597C16.2152 3.03911 16.4271 3.5529 16.4271 4.15734C16.4271 4.76191 16.2155 5.27603 15.7922 5.69971C15.3688 6.12351 14.8547 6.33541 14.25 6.33541C13.9516 6.33541 13.6689 6.27676 13.4019 6.15947C13.135 6.0423 12.8971 5.87968 12.6881 5.6716L6.8327 9.10011C6.8641 9.18944 6.88772 9.28688 6.90355 9.39243C6.91925 9.49799 6.9271 9.59998 6.9271 9.69841C6.9271 9.79684 6.91925 9.89936 6.90355 10.006C6.88772 10.1126 6.8641 10.2106 6.8327 10.2999L12.6881 13.7284C12.8971 13.5203 13.135 13.3577 13.4019 13.2405C13.6689 13.1232 13.9516 13.0646 14.25 13.0646C14.8547 13.0646 15.3688 13.2762 15.7922 13.6993C16.2155 14.1224 16.4271 14.6362 16.4271 15.2407C16.4271 15.8452 16.2155 16.3594 15.7924 16.783C15.3692 17.2068 14.8554 17.4187 14.251 17.4187ZM14.25 5.14791C14.5251 5.14791 14.7588 5.05173 14.951 4.85935C15.1434 4.66711 15.2396 4.43343 15.2396 4.15833C15.2396 3.88323 15.1434 3.64955 14.951 3.45731C14.7588 3.26493 14.5251 3.16875 14.25 3.16875C13.9749 3.16875 13.7412 3.26493 13.549 3.45731C13.3566 3.64955 13.2604 3.88323 13.2604 4.15833C13.2604 4.43343 13.3566 4.66711 13.549 4.85935C13.7412 5.05173 13.9749 5.14791 14.25 5.14791ZM4.75002 10.6896C5.02512 10.6896 5.2588 10.5934 5.45104 10.401C5.64342 10.2088 5.7396 9.9751 5.7396 9.7C5.7396 9.42489 5.64342 9.19122 5.45104 8.99898C5.2588 8.8066 5.02512 8.71041 4.75002 8.71041C4.47492 8.71041 4.24124 8.8066 4.049 8.99898C3.85662 9.19122 3.76044 9.42489 3.76044 9.7C3.76044 9.9751 3.85662 10.2088 4.049 10.401C4.24124 10.5934 4.47492 10.6896 4.75002 10.6896ZM14.25 16.2312C14.5251 16.2312 14.7588 16.1351 14.951 15.9427C15.1434 15.7504 15.2396 15.5168 15.2396 15.2417C15.2396 14.9666 15.1434 14.7329 14.951 14.5406C14.7588 14.3483 14.5251 14.2521 14.25 14.2521C13.9749 14.2521 13.7412 14.3483 13.549 14.5406C13.3566 14.7329 13.2604 14.9666 13.2604 15.2417C13.2604 15.5168 13.3566 15.7504 13.549 15.9427C13.7412 16.1351 13.9749 16.2312 14.25 16.2312Z" fill="#090A0B"/>
</svg>
