<svg width="101" height="19" viewBox="0 0 101 19" fill="none" xmlns="http://www.w3.org/2000/svg">
<g clip-path="url(#clip0_1_1066)">
<path d="M8.54014 6.80625H14.3863C14.5554 6.80625 14.6924 6.9433 14.6924 7.11237V8.15259C14.6924 8.32166 14.5554 8.45872 14.3863 8.45872H0.612276C0.443203 8.45872 0.306152 8.32166 0.306152 8.15259V7.11237C0.306152 6.9433 0.443203 6.80625 0.612276 6.80625H7.49931" fill="#CE4500"/>
<path d="M7.4993 8.45877C7.95563 8.45877 8.32556 8.08884 8.32556 7.63251C8.32556 7.17618 7.95563 6.80625 7.4993 6.80625C7.04296 6.80625 6.67303 7.17618 6.67303 7.63251C6.67303 8.08884 7.04296 8.45877 7.4993 8.45877Z" fill="#FFD940"/>
<path d="M13.9276 8.45934V13.3516C13.9276 14.1159 13.3081 14.7354 12.5438 14.7354H2.45382C1.68958 14.7354 1.07007 14.1159 1.07007 13.3516V8.45934" fill="#ED732F"/>
<path d="M13.7489 6.80625C14.7282 4.86175 14.995 3.10203 14.3178 2.71107C13.5638 2.27574 11.9254 3.70201 10.6583 5.8967C10.4817 6.20259 10.3217 6.50722 10.179 6.80625H13.7489Z" fill="#FF9D3B"/>
<path d="M9.17603 3.52761C8.4712 2.84308 7.42964 2.74544 6.73917 3.27052C6.66853 3.12867 6.57452 2.99546 6.45631 2.87724C5.86911 2.29004 4.91707 2.29004 4.32988 2.87724C4.32343 2.88369 4.31745 2.89043 4.3111 2.89696V3.35897C4.3111 5.41075 5.7049 5.06344 5.7049 6.80622H7.49925H7.58424L9.17603 3.52761Z" fill="#4BDD6B"/>
<path d="M10.6905 5.64709C10.4406 5.39725 10.1248 5.2541 9.79906 5.21681C9.83882 4.90538 9.79595 4.57813 9.67346 4.2687L8.4415 6.80625H8.5402H10.179C10.3217 6.50722 10.4817 6.20259 10.6583 5.8967C10.6921 5.83811 10.7263 5.78019 10.7606 5.72271C10.7381 5.69695 10.715 5.67161 10.6905 5.64709Z" fill="#4BDD6B"/>
<path d="M5.70493 6.80625C5.70493 5.06346 4.31113 5.41081 4.31113 3.359V1.26462H3.01538V3.359C3.01538 5.41078 1.62158 5.06346 1.62158 6.80625H5.70493Z" fill="#B047AA"/>
<path d="M8.22854 7.24477L10.7192 2.11459H9.86207L7.58224 6.81042L8.22854 7.24477Z" fill="#CE4500"/>
<path d="M14.3863 6.5001H14.2349C15.0161 4.7835 15.3655 2.96246 14.4708 2.4459C14.1265 2.24712 13.5016 2.19694 12.4794 3.08668C11.8743 3.61344 11.2514 4.36895 10.6932 5.24821C10.5196 5.12098 10.3266 5.0262 10.1194 4.96831C10.1172 4.74026 10.0783 4.50993 10.0049 4.2868L10.9946 2.24821C11.0407 2.15334 11.0347 2.04146 10.9787 1.95204C10.9227 1.86266 10.8247 1.80837 10.7192 1.80837H9.86202C9.74477 1.80837 9.63784 1.87534 9.58663 1.98078L9.06925 3.04649C8.38592 2.57794 7.51953 2.49975 6.83664 2.84903C6.78652 2.78273 6.73179 2.71986 6.67273 2.66079C6.33092 2.31896 5.8765 2.13073 5.39307 2.13073C5.1202 2.13073 4.85658 2.19075 4.61723 2.30446V1.26462C4.61723 1.09555 4.48017 0.958496 4.3111 0.958496H3.01536C2.84629 0.958496 2.70923 1.09555 2.70923 1.26462V3.359C2.70923 4.30898 2.40311 4.64803 2.04865 5.04061C1.74413 5.37785 1.40388 5.75528 1.33023 6.50013H0.612277C0.274659 6.5001 0 6.77479 0 7.11238V8.15259C0 8.49018 0.274659 8.76487 0.612277 8.76487H0.763976V13.3516C0.763976 14.2834 1.52203 15.0415 2.45388 15.0415H12.5439C13.4757 15.0415 14.2337 14.2835 14.2337 13.3516V8.76484H14.3864C14.724 8.76484 14.9986 8.49018 14.9986 8.15256V7.11235C14.9986 6.77479 14.7239 6.5001 14.3863 6.5001ZM12.8815 3.54852C13.551 2.96572 13.9912 2.87592 14.1647 2.97618C14.5345 3.18963 14.5181 4.52487 13.5588 6.5001H10.675C10.7544 6.34925 10.8374 6.19875 10.9234 6.04975C10.9564 5.99259 10.9898 5.93593 11.0234 5.87968H11.0234C11.0236 5.87936 11.0237 5.879 11.024 5.87868C11.5971 4.91897 12.2522 4.09629 12.8815 3.54852ZM9.50773 5.31094C9.51872 5.34492 9.53565 5.37703 9.55812 5.40565C9.60863 5.47011 9.68287 5.51159 9.7642 5.52094C9.99113 5.54692 10.1999 5.63408 10.3752 5.77485L10.3755 5.77491C10.238 6.0145 10.1083 6.25749 9.988 6.5001H8.93035L9.50773 5.31094ZM11.9294 8.76484L13.6215 10.4569V11.9224C13.6102 11.9308 13.5993 11.9399 13.589 11.9501L13.1148 12.4243L11.8788 11.1883L12.1128 10.9543C12.2323 10.8348 12.2323 10.641 12.1128 10.5214C11.9932 10.4019 11.7994 10.4019 11.6799 10.5214L11.4459 10.7554L10.2097 9.51927L10.9641 8.76487L11.9294 8.76484ZM13.5478 12.8573L13.6215 12.7836V12.931L13.5478 12.8573ZM5.10282 14.4292L3.53227 12.8587L4.76837 11.6226L6.00441 12.8586L5.79865 13.0644C5.67912 13.1839 5.67912 13.3778 5.79865 13.4973C5.85845 13.5571 5.93679 13.587 6.01513 13.587C6.09347 13.587 6.17184 13.5571 6.2316 13.4973L6.43736 13.2916L7.57502 14.4292H5.10282ZM1.56504 13.96C1.44604 13.7868 1.37622 13.5772 1.37622 13.3516V11.6768L1.43033 11.6226L2.6664 12.8587L1.56504 13.96ZM1.86326 11.1897L3.09935 9.95359L4.33542 11.1897L3.09932 12.4258L1.86326 11.1897ZM4.2881 8.76484H8.58945L9.34385 9.51924L8.10778 10.7553L7.78077 10.4283C7.66124 10.3088 7.46738 10.3088 7.34782 10.4283C7.22829 10.5478 7.22829 10.7417 7.34782 10.8612L7.67483 11.1883L6.43742 12.4257L5.20138 11.1896L6.23166 10.1593C6.35119 10.0398 6.35119 9.84596 6.23166 9.72639C6.11213 9.60689 5.91827 9.60689 5.79871 9.72639L4.76843 10.7567L3.53236 9.52061L4.2881 8.76484ZM3.09935 9.08766L2.77653 8.76484H3.4222L3.09935 9.08766ZM8.10649 14.0948L6.87034 12.8586L8.10775 11.6212L9.3439 12.8574L8.10649 14.0948ZM8.5407 11.1882L9.77677 9.95216L11.0129 11.1883L9.77683 12.4244L8.5407 11.1882ZM9.77686 13.2903L10.9158 14.4292H8.63791L9.77686 13.2903ZM10.2098 12.8574L11.4459 11.6213L12.6819 12.8573L11.4458 14.0934L10.2098 12.8574ZM9.7768 9.08629L9.45535 8.76484H10.0982L9.7768 9.08629ZM6.9787 7.63245C6.9787 7.34567 7.21203 7.11238 7.49881 7.11238C7.7856 7.11238 8.01892 7.3457 8.01892 7.63245C8.01892 7.91924 7.7856 8.15256 7.49881 8.15256C7.21203 8.15256 6.9787 7.91924 6.9787 7.63245ZM10.0537 2.42071H10.2303L8.14953 6.70655C8.10614 6.67597 8.06055 6.64843 8.01303 6.62408L10.0537 2.42071ZM5.3931 2.743C5.71293 2.743 6.01366 2.86757 6.23984 3.09374C6.33145 3.18536 6.40727 3.29077 6.46513 3.40699C6.50579 3.48864 6.58074 3.54794 6.66956 3.56868C6.75839 3.58948 6.85191 3.56947 6.92448 3.51424C7.44784 3.11622 8.22084 3.16353 8.79813 3.60512L7.39261 6.5001H5.99632C5.92267 5.75525 5.58241 5.37782 5.2779 5.04058C4.92344 4.64801 4.61731 4.30895 4.61731 3.35897V3.02818C4.83358 2.84358 5.10564 2.743 5.3931 2.743ZM4.00501 1.57077V1.79361H3.32151V1.57077H4.00501ZM2.50307 5.45092C2.88671 5.02608 3.32151 4.5445 3.32151 3.359V2.40585H4.00501V3.359C4.00501 4.5445 4.4398 5.02605 4.82345 5.45092C5.09474 5.75139 5.31795 5.99859 5.38097 6.50013H1.94552C2.0086 5.99857 2.23175 5.75139 2.50307 5.45092ZM0.612277 7.11238H6.49349C6.41251 7.26824 6.36649 7.44501 6.36649 7.63245C6.36649 7.8199 6.41254 7.9967 6.49349 8.15256H0.612277V7.11238ZM1.91066 8.76484L2.66643 9.52061L1.43033 10.7567L1.37622 10.7026V8.76481L1.91066 8.76484ZM2.0432 14.3477L3.09932 13.2916L4.23689 14.4292H2.45382C2.30848 14.4292 2.16985 14.4001 2.0432 14.3477ZM12.5438 14.4292H11.9758L13.1148 13.2902L13.5532 13.7286C13.4 14.1374 13.0054 14.4292 12.5438 14.4292ZM13.6215 9.5911L12.7952 8.76484H13.6215V9.5911ZM14.3863 8.15259H8.50417C8.58514 7.9967 8.63117 7.81993 8.63117 7.63248C8.63117 7.49907 8.60782 7.37107 8.56525 7.25212L8.6331 7.11241H10.179H13.7489H14.3863V8.15259Z" fill="black"/>
<path d="M13.1135 4.6841C13.1397 4.6841 13.1664 4.6807 13.1929 4.67361L13.7649 4.52036C13.9282 4.47662 14.0251 4.30872 13.9814 4.14544C13.9376 3.98211 13.7697 3.8852 13.6064 3.92897L13.0345 4.08222C12.8711 4.12596 12.7742 4.29386 12.818 4.45713C12.8546 4.59392 12.9783 4.6841 13.1135 4.6841Z" fill="black"/>
<path d="M11.9005 6.0462C11.9371 6.18299 12.0608 6.27319 12.196 6.27319C12.2222 6.27319 12.2489 6.26979 12.2754 6.2627L12.8474 6.10945C13.0108 6.06571 13.1077 5.89781 13.0639 5.73454C13.0202 5.57121 12.8523 5.4743 12.689 5.51806L12.117 5.67132C11.9536 5.71503 11.8567 5.88293 11.9005 6.0462Z" fill="black"/>
<path d="M6.65979 9.60432C6.73813 9.60432 6.8165 9.57443 6.87627 9.51464L6.87911 9.51179C6.99864 9.39226 6.99864 9.19841 6.87911 9.07885C6.75958 8.95931 6.56572 8.95931 6.44616 9.07885L6.44332 9.08169C6.32379 9.20122 6.32379 9.39508 6.44332 9.51464C6.50314 9.57443 6.58145 9.60432 6.65979 9.60432Z" fill="black"/>
<path d="M5.18432 13.6787L5.18148 13.6816C5.06194 13.8011 5.06194 13.995 5.18148 14.1145C5.24127 14.1743 5.31961 14.2042 5.39795 14.2042C5.47629 14.2042 5.55466 14.1743 5.61443 14.1145L5.61727 14.1117C5.7368 13.9921 5.7368 13.7983 5.61727 13.6787C5.49771 13.5592 5.30388 13.5592 5.18432 13.6787Z" fill="black"/>
<path d="M12.4647 10.4756C12.543 10.4756 12.6214 10.4458 12.6811 10.386L12.684 10.3831C12.8035 10.2636 12.8035 10.0697 12.684 9.95017C12.5644 9.83064 12.3706 9.83064 12.251 9.95017L12.2482 9.95301C12.1287 10.0725 12.1287 10.2664 12.2482 10.386C12.308 10.4458 12.3863 10.4756 12.4647 10.4756Z" fill="black"/>
</g>
<path d="M25.5391 10.8594H27.2656C27.3906 11.9766 28.4766 12.7109 29.9609 12.7109C31.3828 12.7109 32.4062 11.9766 32.4062 10.9688C32.4062 10.0938 31.7891 9.57031 30.3281 9.21094L28.8672 8.85938C26.7969 8.35938 25.8359 7.39062 25.8359 5.82031C25.8359 3.875 27.5312 2.53906 29.9375 2.53906C32.3203 2.53906 33.9531 3.875 34.0078 5.82031H32.3047C32.2031 4.69531 31.2734 4.01562 29.9141 4.01562C28.5547 4.01562 27.625 4.70312 27.625 5.70312C27.625 6.5 28.2188 6.96875 29.6719 7.32812L30.9141 7.63281C33.2266 8.17969 34.1875 9.10938 34.1875 10.7578C34.1875 12.8672 32.5078 14.1875 29.8359 14.1875C27.3359 14.1875 25.6484 12.8984 25.5391 10.8594ZM39.5159 5.64844C41.6019 5.64844 42.9769 7.28906 42.9769 9.89062C42.9769 12.4922 41.6097 14.1406 39.5472 14.1406C38.3675 14.1406 37.43 13.5625 36.9613 12.6484H36.9222V16.7188H35.2347V5.78125H36.8675V7.19531H36.8988C37.3831 6.25 38.3284 5.64844 39.5159 5.64844ZM39.0706 12.7109C40.4066 12.7109 41.2425 11.6172 41.2425 9.89062C41.2425 8.17188 40.4066 7.07031 39.0706 7.07031C37.7816 7.07031 36.9144 8.19531 36.9144 9.89062C36.9144 11.6016 37.7738 12.7109 39.0706 12.7109ZM46.8366 12.8047C48.0163 12.8047 48.9381 11.9922 48.9381 10.9219V10.2734L46.9147 10.3984C45.9069 10.4688 45.3366 10.9141 45.3366 11.6172C45.3366 12.3359 45.9303 12.8047 46.8366 12.8047ZM46.3678 14.1406C44.7584 14.1406 43.6334 13.1406 43.6334 11.6641C43.6334 10.2266 44.735 9.34375 46.6881 9.23438L48.9381 9.10156V8.46875C48.9381 7.55469 48.3209 7.00781 47.2897 7.00781C46.3131 7.00781 45.7038 7.47656 45.5553 8.21094H43.9616C44.0553 6.72656 45.3209 5.63281 47.3522 5.63281C49.3444 5.63281 50.6178 6.6875 50.6178 8.33594V14H49.0006V12.6484H48.9616C48.485 13.5625 47.4459 14.1406 46.3678 14.1406ZM55.4384 12.6328C56.7588 12.6328 57.6259 11.5625 57.6259 9.86719C57.6259 8.17969 56.7588 7.07031 55.4384 7.07031C54.1416 7.07031 53.2978 8.15625 53.2978 9.86719C53.2978 11.5859 54.1416 12.6328 55.4384 12.6328ZM55.4541 17.0938C53.5166 17.0938 52.0791 16.0625 51.8681 14.6406H53.5634C53.8056 15.3281 54.5556 15.7812 55.5166 15.7812C56.8369 15.7812 57.6181 15.0312 57.6181 13.9062V12.5547H57.5869C57.1259 13.4453 56.1572 14.0312 54.9853 14.0312C52.9228 14.0312 51.5713 12.4219 51.5713 9.85938C51.5713 7.27344 52.915 5.64844 55.0244 5.64844C56.1884 5.64844 57.1416 6.23438 57.6416 7.1875H57.6728V5.78125H59.3134V13.8516C59.3134 15.8125 57.7978 17.0938 55.4541 17.0938ZM60.7278 14V2.72656H62.3997V7.15625H62.4388C62.8919 6.19531 63.7903 5.64062 65.0403 5.64062C66.845 5.64062 67.9231 6.84375 67.9231 8.70312V14H66.2278V9.03125C66.2278 7.82031 65.6184 7.09375 64.4309 7.09375C63.1809 7.09375 62.4153 7.95312 62.4153 9.25V14H60.7278ZM72.6734 6.99219C71.4938 6.99219 70.6656 7.89062 70.5797 9.13281H74.6891C74.65 7.875 73.8531 6.99219 72.6734 6.99219ZM74.6813 11.5859H76.2828C76.0484 13.0859 74.6266 14.1562 72.7438 14.1562C70.3297 14.1562 68.8688 12.5234 68.8688 9.92969C68.8688 7.35156 70.3531 5.63281 72.6734 5.63281C74.9547 5.63281 76.3766 7.24219 76.3766 9.73438V10.3125H70.5719V10.4141C70.5719 11.8438 71.4313 12.7891 72.7828 12.7891C73.7438 12.7891 74.4547 12.3047 74.6813 11.5859ZM77.8613 3.83594H79.5566V5.78125H81.1191V7.11719H79.5566V11.6484C79.5566 12.3594 79.8691 12.6797 80.5566 12.6797C80.7284 12.6797 81.0019 12.6641 81.1113 12.6406V13.9766C80.9238 14.0234 80.5488 14.0547 80.1738 14.0547C78.5097 14.0547 77.8613 13.4219 77.8613 11.8359V7.11719H76.6659V5.78125H77.8613V3.83594ZM82.6819 3.83594H84.3772V5.78125H85.9397V7.11719H84.3772V11.6484C84.3772 12.3594 84.6897 12.6797 85.3772 12.6797C85.5491 12.6797 85.8225 12.6641 85.9319 12.6406V13.9766C85.7444 14.0234 85.3694 14.0547 84.9944 14.0547C83.3303 14.0547 82.6819 13.4219 82.6819 11.8359V7.11719H81.4866V5.78125H82.6819V3.83594ZM87.065 14V5.78125H88.7525V14H87.065ZM87.9087 4.57812C87.3697 4.57812 86.9322 4.14844 86.9322 3.61719C86.9322 3.07812 87.3697 2.64844 87.9087 2.64844C88.4556 2.64844 88.8931 3.07812 88.8931 3.61719C88.8931 4.14844 88.4556 4.57812 87.9087 4.57812Z" fill="#00A6FB"/>
<path d="M25 16.8984H89.6431V18.0312H25V16.8984Z" fill="#00A6FB"/>
<defs>
<clipPath id="clip0_1_1066">
<rect width="15" height="15" fill="white" transform="translate(0 0.5)"/>
</clipPath>
</defs>
</svg>
